<?xml version="1.0" standalone="no"?>
<!DOCTYPE svg PUBLIC "-//W3C//DTD SVG 20010904//EN"
 "http://www.w3.org/TR/2001/REC-SVG-20010904/DTD/svg10.dtd">
<svg version="1.0" xmlns="http://www.w3.org/2000/svg"
 width="500.000000pt" height="500.000000pt" viewBox="0 0 500.000000 500.000000"
 preserveAspectRatio="xMidYMid meet">

<g transform="translate(0.000000,500.000000) scale(0.100000,-0.100000)"
fill="#000000" stroke="none">
<path d="M798 4072 l-378 -377 0 -1195 0 -1195 378 -377 377 -378 1252 0 1252
0 375 377 376 376 2 431 3 431 178 3 177 2 0 370 0 370 -180 0 -180 0 0 393 0
392 -378 378 -378 377 -1249 0 -1249 0 -378 -378z m1648 -382 l1234 0 0 -390
0 -390 -187 -2 -188 -3 -3 -367 -2 -368 190 0 190 0 0 -429 0 -429 -222 -7
c-123 -3 -686 -5 -1253 -3 l-1030 3 -3 1185 c-1 652 0 1191 3 1199 3 7 12 10
21 7 9 -3 571 -6 1250 -6z"/>
<path d="M2330 3396 c-224 -49 -381 -281 -342 -508 18 -101 60 -184 128 -248
l57 -54 -13 -65 c-7 -36 -27 -142 -45 -236 -19 -93 -52 -264 -74 -378 -23
-115 -41 -215 -41 -223 0 -12 67 -14 425 -14 402 0 425 1 425 18 0 17 -28 161
-127 662 l-46 236 54 51 c184 174 184 460 -1 643 -64 63 -128 98 -214 116 -74
16 -114 16 -186 0z"/>
</g>
</svg>
