<?xml version="1.0" standalone="no"?>
<!DOCTYPE svg PUBLIC "-//W3C//DTD SVG 20010904//EN"
 "http://www.w3.org/TR/2001/REC-SVG-20010904/DTD/svg10.dtd">
<svg version="1.0" xmlns="http://www.w3.org/2000/svg"
 width="1000.000000pt" height="225.000000pt" viewBox="0 0 1000.000000 225.000000"
 preserveAspectRatio="xMidYMid meet">

<g transform="translate(0.000000,225.000000) scale(0.100000,-0.100000)"
fill="#000000" stroke="none">
<path d="M472 1807 l-152 -152 0 -485 0 -485 153 -153 152 -152 500 0 500 0
160 160 160 160 3 155 4 155 74 0 74 0 0 150 0 150 -75 0 -75 0 0 168 0 167
-158 158 -157 157 -505 0 -505 0 -153 -153z m1168 -327 l0 -170 -70 0 -70 0 0
-150 0 -150 70 0 70 0 0 -160 0 -160 -505 0 -505 0 0 480 0 480 505 0 505 0 0
-170z"/>
<path d="M1078 1501 c-47 -15 -85 -49 -107 -94 -34 -70 -23 -141 30 -195 l31
-31 -36 -171 c-20 -94 -36 -177 -36 -185 0 -13 28 -15 175 -15 139 0 175 3
175 13 0 8 -16 92 -35 187 l-35 174 29 30 c55 57 65 121 30 194 -12 24 -37 54
-59 68 -41 27 -118 39 -162 25z"/>
<path d="M2300 1322 l0 -637 153 -153 152 -152 530 0 530 0 158 158 157 157
-2 630 -3 630 -152 3 -153 3 0 -636 0 -635 -535 0 -535 0 0 635 0 635 -150 0
-150 0 0 -638z"/>
<path d="M4482 1807 l-152 -152 0 -638 0 -637 150 0 150 0 0 315 0 315 535 0
535 0 0 -315 0 -315 155 0 155 0 0 633 0 632 -158 158 -157 157 -530 0 -530 0
-153 -153z m1218 -322 l0 -165 -535 0 -535 0 0 165 0 165 535 0 535 0 0 -165z"/>
<path d="M6512 1807 l-152 -152 0 -638 0 -637 150 0 150 0 0 635 0 635 605 0
605 0 0 155 0 155 -603 0 -602 0 -153 -153z"/>
<path d="M8220 1170 l0 -790 155 0 155 0 0 315 0 315 420 0 420 0 0 -315 0
-315 155 0 155 0 0 317 0 318 -77 77 -78 78 78 78 77 77 0 318 0 318 -152 -3
-153 -3 -3 -317 -2 -318 -420 0 -420 0 -2 318 -3 317 -152 3 -153 3 0 -791z"/>
</g>
</svg>
